<?xml version="1.0" encoding="UTF-8" standalone="no"?>
<!DOCTYPE svg PUBLIC "-//W3C//DTD SVG 1.1//EN"
 "http://www.w3.org/Graphics/SVG/1.1/DTD/svg11.dtd">
<!-- Generated by graphviz version 2.40.1 (20161225.0304)
 -->
<!-- Title: dependencies Pages: 1 -->
<svg width="1540pt" height="211pt"
 viewBox="0.00 0.00 1540.00 211.00" xmlns="http://www.w3.org/2000/svg" xmlns:xlink="http://www.w3.org/1999/xlink">
<g id="graph0" class="graph" transform="scale(1 1) rotate(0) translate(4 207)">
<title>dependencies</title>
<polygon fill="#ffffff" stroke="transparent" points="-4,4 -4,-207 1536,-207 1536,4 -4,4"/>
<text text-anchor="start" x="745.0091" y="-42.4" font-family="sans-serif" font-weight="bold" font-size="14.00" fill="#000000">Legend</text>
<polygon fill="#ffffb3" stroke="transparent" points="532,-10 532,-30 552,-30 552,-10 532,-10"/>
<text text-anchor="start" x="555.629" y="-15.4" font-family="sans-serif" font-size="14.00" fill="#000000"> &#160;Declarations</text>
<polygon fill="#8dd3c7" stroke="transparent" points="645,-10 645,-30 665,-30 665,-10 645,-10"/>
<text text-anchor="start" x="668.7251" y="-15.4" font-family="sans-serif" font-size="14.00" fill="#000000"> &#160;Module</text>
<polygon fill="#80b1d3" stroke="transparent" points="731,-10 731,-30 751,-30 751,-10 731,-10"/>
<text text-anchor="start" x="754.7812" y="-15.4" font-family="sans-serif" font-size="14.00" fill="#000000"> &#160;Bootstrap</text>
<polygon fill="#fdb462" stroke="transparent" points="828,-10 828,-30 848,-30 848,-10 828,-10"/>
<text text-anchor="start" x="851.6732" y="-15.4" font-family="sans-serif" font-size="14.00" fill="#000000"> &#160;Providers</text>
<polygon fill="#fb8072" stroke="transparent" points="924,-10 924,-30 944,-30 944,-10 924,-10"/>
<text text-anchor="start" x="947.7258" y="-15.4" font-family="sans-serif" font-size="14.00" fill="#000000"> &#160;Exports</text>
<g id="clust1" class="cluster">
<title>cluster_TerminalModule</title>
<polygon fill="none" stroke="#000000" stroke-dasharray="1,5" points="8,-70 8,-195 1524,-195 1524,-70 8,-70"/>
</g>
<g id="clust2" class="cluster">
<title>cluster_TerminalModule_declarations</title>
<polygon fill="none" stroke="#000000" points="196,-78 196,-130 1516,-130 1516,-78 196,-78"/>
</g>
<g id="clust11" class="cluster">
<title>cluster_TerminalModule_imports</title>
<polygon fill="none" stroke="#000000" points="16,-78 16,-130 188,-130 188,-78 16,-78"/>
</g>
<!-- CommandLineComponent -->
<g id="node1" class="node">
<title>CommandLineComponent</title>
<polygon fill="#ffffb3" stroke="#000000" points="1507.8229,-122 1342.1771,-122 1342.1771,-86 1507.8229,-86 1507.8229,-122"/>
<text text-anchor="middle" x="1425" y="-99.8" font-family="Times,serif" font-size="14.00" fill="#000000">CommandLineComponent</text>
</g>
<!-- TerminalModule -->
<g id="node9" class="node">
<title>TerminalModule</title>
<polygon fill="#8dd3c7" stroke="#000000" points="792.3641,-187 789.3641,-191 768.3641,-191 765.3641,-187 681.6359,-187 681.6359,-151 792.3641,-151 792.3641,-187"/>
<text text-anchor="middle" x="737" y="-164.8" font-family="Times,serif" font-size="14.00" fill="#000000">TerminalModule</text>
</g>
<!-- CommandLineComponent&#45;&gt;TerminalModule -->
<g id="edge1" class="edge">
<title>CommandLineComponent&#45;&gt;TerminalModule</title>
<path fill="none" stroke="#000000" d="M1425,-122.0109C1425,-144.4852 1425,-180 1425,-180 1425,-180 802.4287,-180 802.4287,-180"/>
<polygon fill="#000000" stroke="#000000" points="802.4288,-176.5001 792.4287,-180 802.4287,-183.5001 802.4288,-176.5001"/>
</g>
<!-- HistoryCommandComponent -->
<g id="node2" class="node">
<title>HistoryCommandComponent</title>
<polygon fill="#ffffb3" stroke="#000000" points="1324.6581,-122 1143.3419,-122 1143.3419,-86 1324.6581,-86 1324.6581,-122"/>
<text text-anchor="middle" x="1234" y="-99.8" font-family="Times,serif" font-size="14.00" fill="#000000">HistoryCommandComponent</text>
</g>
<!-- HistoryCommandComponent&#45;&gt;TerminalModule -->
<g id="edge2" class="edge">
<title>HistoryCommandComponent&#45;&gt;TerminalModule</title>
<path fill="none" stroke="#000000" d="M1234,-122.1289C1234,-142.5724 1234,-173 1234,-173 1234,-173 802.5655,-173 802.5655,-173"/>
<polygon fill="#000000" stroke="#000000" points="802.5656,-169.5001 792.5655,-173 802.5655,-176.5001 802.5656,-169.5001"/>
</g>
<!-- HistoryComponent -->
<g id="node3" class="node">
<title>HistoryComponent</title>
<polygon fill="#ffffb3" stroke="#000000" points="1125.8258,-122 1002.1742,-122 1002.1742,-86 1125.8258,-86 1125.8258,-122"/>
<text text-anchor="middle" x="1064" y="-99.8" font-family="Times,serif" font-size="14.00" fill="#000000">HistoryComponent</text>
</g>
<!-- HistoryComponent&#45;&gt;TerminalModule -->
<g id="edge3" class="edge">
<title>HistoryComponent&#45;&gt;TerminalModule</title>
<path fill="none" stroke="#000000" d="M1064,-122.2667C1064,-140.5552 1064,-166 1064,-166 1064,-166 802.4711,-166 802.4711,-166"/>
<polygon fill="#000000" stroke="#000000" points="802.4711,-162.5001 792.4711,-166 802.4711,-169.5001 802.4711,-162.5001"/>
</g>
<!-- HistoryOutputComponent -->
<g id="node4" class="node">
<title>HistoryOutputComponent</title>
<polygon fill="#ffffb3" stroke="#000000" points="984.2133,-122 821.7867,-122 821.7867,-86 984.2133,-86 984.2133,-122"/>
<text text-anchor="middle" x="903" y="-99.8" font-family="Times,serif" font-size="14.00" fill="#000000">HistoryOutputComponent</text>
</g>
<!-- HistoryOutputComponent&#45;&gt;TerminalModule -->
<g id="edge4" class="edge">
<title>HistoryOutputComponent&#45;&gt;TerminalModule</title>
<path fill="none" stroke="#000000" d="M903,-122.0091C903,-138.0494 903,-159 903,-159 903,-159 802.7374,-159 802.7374,-159"/>
<polygon fill="#000000" stroke="#000000" points="802.7374,-155.5001 792.7374,-159 802.7374,-162.5001 802.7374,-155.5001"/>
</g>
<!-- ManPageComponent -->
<g id="node5" class="node">
<title>ManPageComponent</title>
<polygon fill="#ffffb3" stroke="#000000" points="804.2036,-122 669.7964,-122 669.7964,-86 804.2036,-86 804.2036,-122"/>
<text text-anchor="middle" x="737" y="-99.8" font-family="Times,serif" font-size="14.00" fill="#000000">ManPageComponent</text>
</g>
<!-- ManPageComponent&#45;&gt;TerminalModule -->
<g id="edge5" class="edge">
<title>ManPageComponent&#45;&gt;TerminalModule</title>
<path fill="none" stroke="#000000" d="M737,-122.1061C737,-122.1061 737,-140.991 737,-140.991"/>
<polygon fill="#000000" stroke="#000000" points="733.5001,-140.9909 737,-150.991 740.5001,-140.991 733.5001,-140.9909"/>
</g>
<!-- PipelineComponent -->
<g id="node6" class="node">
<title>PipelineComponent</title>
<polygon fill="#ffffb3" stroke="#000000" points="651.7162,-122 524.2838,-122 524.2838,-86 651.7162,-86 651.7162,-122"/>
<text text-anchor="middle" x="588" y="-99.8" font-family="Times,serif" font-size="14.00" fill="#000000">PipelineComponent</text>
</g>
<!-- PipelineComponent&#45;&gt;TerminalModule -->
<g id="edge6" class="edge">
<title>PipelineComponent&#45;&gt;TerminalModule</title>
<path fill="none" stroke="#000000" d="M588,-122.0091C588,-138.0494 588,-159 588,-159 588,-159 671.5179,-159 671.5179,-159"/>
<polygon fill="#000000" stroke="#000000" points="671.5179,-162.5001 681.5179,-159 671.5179,-155.5001 671.5179,-162.5001"/>
</g>
<!-- SidebarComponent -->
<g id="node7" class="node">
<title>SidebarComponent</title>
<polygon fill="#ffffb3" stroke="#000000" points="506.0954,-122 381.9046,-122 381.9046,-86 506.0954,-86 506.0954,-122"/>
<text text-anchor="middle" x="444" y="-99.8" font-family="Times,serif" font-size="14.00" fill="#000000">SidebarComponent</text>
</g>
<!-- SidebarComponent&#45;&gt;TerminalModule -->
<g id="edge7" class="edge">
<title>SidebarComponent&#45;&gt;TerminalModule</title>
<path fill="none" stroke="#000000" d="M444,-122.2667C444,-140.5552 444,-166 444,-166 444,-166 671.5445,-166 671.5445,-166"/>
<polygon fill="#000000" stroke="#000000" points="671.5445,-169.5001 681.5445,-166 671.5444,-162.5001 671.5445,-169.5001"/>
</g>
<!-- TerminalPageComponent -->
<g id="node8" class="node">
<title>TerminalPageComponent</title>
<polygon fill="#ffffb3" stroke="#000000" points="363.8585,-122 204.1415,-122 204.1415,-86 363.8585,-86 363.8585,-122"/>
<text text-anchor="middle" x="284" y="-99.8" font-family="Times,serif" font-size="14.00" fill="#000000">TerminalPageComponent</text>
</g>
<!-- TerminalPageComponent&#45;&gt;TerminalModule -->
<g id="edge8" class="edge">
<title>TerminalPageComponent&#45;&gt;TerminalModule</title>
<path fill="none" stroke="#000000" d="M284,-122.1289C284,-142.5724 284,-173 284,-173 284,-173 671.4533,-173 671.4533,-173"/>
<polygon fill="#000000" stroke="#000000" points="671.4533,-176.5001 681.4533,-173 671.4533,-169.5001 671.4533,-176.5001"/>
</g>
<!-- TerminalRoutingModule -->
<g id="node10" class="node">
<title>TerminalRoutingModule</title>
<polygon fill="#8dd3c7" stroke="#000000" points="179.9818,-122 176.9818,-126 155.9818,-126 152.9818,-122 24.0182,-122 24.0182,-86 179.9818,-86 179.9818,-122"/>
<text text-anchor="middle" x="102" y="-99.8" font-family="Times,serif" font-size="14.00" fill="#000000">TerminalRoutingModule</text>
</g>
<!-- TerminalRoutingModule&#45;&gt;TerminalModule -->
<g id="edge9" class="edge">
<title>TerminalRoutingModule&#45;&gt;TerminalModule</title>
<path fill="none" stroke="#000000" d="M102,-122.0109C102,-144.4852 102,-180 102,-180 102,-180 671.4819,-180 671.4819,-180"/>
<polygon fill="#000000" stroke="#000000" points="671.482,-183.5001 681.4819,-180 671.4819,-176.5001 671.482,-183.5001"/>
</g>
</g>
</svg>
